<?xml version="1.0" encoding="iso-8859-1"?>
<!-- Generator: Adobe Illustrator 19.0.0, SVG Export Plug-In . SVG Version: 6.00 Build 0)  -->
<!-- License: CC0. Made by SVG Repo: https://www.svgrepo.com/svg/227408/coffee -->
<svg version="1.1" id="Layer_1" xmlns="http://www.w3.org/2000/svg" xmlns:xlink="http://www.w3.org/1999/xlink" x="0px" y="0px"
	 viewBox="0 0 501.551 501.551" style="enable-background:new 0 0 501.551 501.551;" xml:space="preserve">
<path style="fill:#F1543F;" d="M444.082,34.482H57.469c-16.718,0-29.257,13.584-29.257,29.257s13.584,30.302,29.257,30.302h386.612
	c16.718,0,29.257-13.584,29.257-29.257S459.755,34.482,444.082,34.482z"/>
<polygon style="fill:#FF7058;" points="360.49,0 141.061,0 109.714,34.482 391.837,34.482 "/>
<path style="fill:#E2E2E2;" d="M444.082,94.041H57.469c-1.045,0-1.045,0-2.09,0l3.135,15.673l22.988,131.657l21.943,120.163
	l21.943,123.298c2.09,10.449,10.449,16.718,20.898,16.718H356.31c10.449,0,18.808-7.314,20.898-16.718l21.943-123.298
	l20.898-120.163l22.988-131.657l3.135-15.673C445.126,94.041,444.082,94.041,444.082,94.041z"/>
<path style="fill:#CDD6E0;" d="M446.171,94.041l-3.135,15.673H58.514L55.38,94.041c1.045,0,1.045,0,2.09,0h386.612
	C444.082,94.041,445.126,94.041,446.171,94.041z"/>
<path style="fill:#FFD15C;" d="M419.004,240.327h-85.682c-16.718-36.571-47.02-61.649-82.547-61.649s-66.873,25.078-82.547,61.649
	H82.547L104.49,360.49h64.784c16.718,36.571,47.02,61.649,82.547,61.649s66.873-25.078,82.547-61.649h64.784L419.004,240.327z"/>
<g>
	<path style="fill:#40596B;" d="M252.865,373.029c14.629-20.898,12.539-49.11-6.269-67.918
		c-11.494-11.494-18.808-27.167-18.808-43.886c0-9.404,2.09-18.808,6.269-27.167c-19.853,9.404-33.437,36.571-33.437,67.918
		c0,39.706,21.943,71.053,49.11,71.053C251.82,373.029,252.865,373.029,252.865,373.029z"/>
	<path style="fill:#40596B;" d="M250.775,229.878c-1.045,0-2.09,0-2.09,0c-6.269,8.359-9.404,19.853-9.404,30.302
		c0,14.629,5.225,27.167,15.673,37.616c18.808,18.808,22.988,48.065,12.539,71.053c19.853-9.404,33.437-36.571,33.437-67.918
		C299.886,262.269,277.943,229.878,250.775,229.878z"/>
</g>
</svg>
