<?xml version="1.0" encoding="iso-8859-1"?>
<!-- Generator: Adobe Illustrator 19.0.0, SVG Export Plug-In . SVG Version: 6.00 Build 0)  -->
<!-- License: CC0. Made by SVG Repo: https://www.svgrepo.com/svg/227357/hamburger-burger -->
<svg version="1.1" id="Layer_1" xmlns="http://www.w3.org/2000/svg" xmlns:xlink="http://www.w3.org/1999/xlink" x="0px" y="0px"
	 viewBox="0 0 501.551 501.551" style="enable-background:new 0 0 501.551 501.551;" xml:space="preserve">
<path style="fill:#F1543F;" d="M458.71,272.718H42.841C18.808,272.718,0,291.527,0,315.559S18.808,358.4,42.841,358.4H458.71
	c24.033,0,42.841-18.808,42.841-42.841C501.551,291.526,482.743,272.718,458.71,272.718z"/>
<path style="fill:#FFD15C;" d="M30.302,358.4v111.804c0,14.629,12.539,27.167,27.167,27.167h386.612
	c14.629,0,27.167-12.539,27.167-27.167V358.4H30.302z"/>
<g>
	<path style="fill:#FF7058;" d="M471.249,358.4v34.482l-3.135,3.135c-13.584,13.584-34.482,12.539-49.11,0
		c-13.584-12.539-34.482-12.539-48.065,0c-6.269,6.269-15.673,10.449-24.033,10.449c-8.359,0-17.763-3.135-24.033-10.449
		c-13.584-13.584-34.482-13.584-48.065,0c-13.584,13.584-34.482,13.584-48.065,0c-6.269-6.269-15.673-10.449-24.033-10.449
		s-17.763,3.135-24.033,10.449c-6.269,7.314-15.673,10.449-24.033,10.449c-8.359,0-17.763-3.135-24.033-10.449
		c-13.584-13.584-34.482-13.584-48.065,0c-13.584,13.584-35.527,13.584-49.11,0l-3.135-4.18V358.4H471.249z"/>
	<path style="fill:#FF7058;" d="M440.947,193.306H60.604l0,0c-38.661,0-59.559,45.976-34.482,75.233l12.539,14.629
		c13.584,13.584,34.482,12.539,48.065,0s34.482-12.539,47.02,0l0,0c13.584,13.584,34.482,13.584,47.02,0l0,0
		c13.584-13.584,34.482-13.584,47.02,0c13.584,13.584,34.482,13.584,47.02,0c13.584-13.584,34.482-13.584,47.02,0l0,0
		c13.584,13.584,34.482,13.584,47.02,0c12.539-12.539,33.437-13.584,47.02,0c13.584,12.539,34.482,13.584,48.065,0l9.404-9.404
		C502.596,245.551,483.788,194.351,440.947,193.306C441.992,193.306,441.992,193.306,440.947,193.306z"/>
</g>
<path style="fill:#FFD15C;" d="M270.629,4.18h-38.661C120.163,4.18,30.302,94.041,30.302,204.8h440.947
	C471.249,94.041,381.388,4.18,270.629,4.18z"/>
<g>
	
		<ellipse transform="matrix(-0.5459 -0.8378 0.8378 -0.5459 134.9715 210.7674)" style="fill:#FFFFFF;" cx="124.6" cy="68.809" rx="8.359" ry="11.493"/>
	
		<ellipse transform="matrix(-0.5459 -0.8379 0.8379 -0.5459 160.4251 243.3016)" style="fill:#FFFFFF;" cx="146.147" cy="78.176" rx="6.27" ry="9.404"/>
	
		<ellipse transform="matrix(-0.546 -0.8378 0.8378 -0.546 193.2617 203.088)" style="fill:#FFFFFF;" cx="151.659" cy="49.179" rx="6.269" ry="9.404"/>
</g>
</svg>
