<?xml version="1.0" encoding="iso-8859-1"?>
<!-- Generator: Adobe Illustrator 19.0.0, SVG Export Plug-In . SVG Version: 6.00 Build 0)  -->
<!-- License: CC0. Made by SVG Repo: https://www.svgrepo.com/svg/227388/ice-cream -->
<svg version="1.1" id="Layer_1" xmlns="http://www.w3.org/2000/svg" xmlns:xlink="http://www.w3.org/1999/xlink" x="0px" y="0px"
	 viewBox="0 0 502.596 502.596" style="enable-background:new 0 0 502.596 502.596;" xml:space="preserve">
<path style="fill:#F2F2F2;" d="M433.633,181.812v206.89c0,11.494-9.404,20.898-20.898,20.898H90.906
	c-11.494,0-20.898-9.404-20.898-20.898v-206.89l0,0c0-30.302,7.314-58.514,19.853-83.592C120.163,39.706,180.767,0,251.82,0
	c50.155,0,96.131,19.853,128.522,53.29c18.808,18.808,33.437,41.796,42.841,66.873C430.498,138.971,433.633,159.869,433.633,181.812
	z"/>
<path style="fill:#FFD15C;" d="M300.931,410.645v42.841c0,27.167-21.943,49.11-49.11,49.11s-49.11-21.943-49.11-49.11v-42.841
	H300.931z"/>
<path style="fill:#FF7058;" d="M423.184,120.163C305.11,99.265,187.037,211.069,70.008,182.857v-1.045
	C70.008,81.502,151.51,0,251.82,0c50.155,0,96.131,19.853,128.522,53.29C399.151,72.098,413.78,95.086,423.184,120.163z"/>
<rect x="202.71" y="410.645" style="fill:#F8B64C;" width="98.22" height="15.673"/>
<path style="fill:#FF7058;" d="M308.245,98.22l-38.661,118.073c-5.224,14.629-14.629,22.988-24.033,22.988
	c-9.404,0-18.808-7.314-24.033-22.988c-10.449-30.302-37.616-30.302-47.02,0l-24.033,72.098c-10.449,30.302-37.616,30.302-47.02,0
	l-32.392-97.176c0-1.045-1.045-3.135-2.09-4.18v-6.269l0,0c0-30.302,7.314-58.514,19.853-83.592h219.429V98.22z"/>
</svg>
