<?xml version="1.0" encoding="iso-8859-1"?>
<!-- Generator: Adobe Illustrator 19.0.0, SVG Export Plug-In . SVG Version: 6.00 Build 0)  -->
<!-- License: CC0. Made by SVG Repo: https://www.svgrepo.com/svg/210379/smoker -->
<svg version="1.1" id="Layer_1" xmlns="http://www.w3.org/2000/svg" xmlns:xlink="http://www.w3.org/1999/xlink" x="0px" y="0px"
	 viewBox="0 0 512.001 512.001" style="enable-background:new 0 0 512.001 512.001;" xml:space="preserve">
<path style="fill:#C89173;" d="M89.616,53.463c-19.143-19.144-50.4-18.789-69.095,1.063c-18.067,19.185-16.177,49.794,2.458,68.429
	l344.982,344.982c6.28,6.28,10.736,10.753,17.016,4.473l54.005-54.005c7.154-7.163,3.323-12.253-2.956-18.532L89.616,53.463z"/>
<path style="fill:#B97A64;" d="M395.389,450.438L44.628,99.677c-14.774-14.772-17.853-36.762-9.342-54.602
	c-4.799,2.289-9.314,5.368-13.288,9.342c-18.747,18.747-18.747,49.142,0,67.889l350.761,350.762c3.125,3.124,8.191,3.124,11.315,0
	l22.629-22.63C403.58,453.562,398.513,453.563,395.389,450.438z"/>
<path style="fill:#D7DEED;" d="M368.975,469.41l-34.003-34.003c11.314-22.629,8.109-40.486,30.101-50.103
	c21.463-9.385,38.288-18.286,38.288-18.286l33.503,33.502L368.975,469.41z"/>
<path style="fill:#FF6464;" d="M355.989,456.297l16.77,16.771c3.125,3.124,8.19,3.124,11.315,0l56.574-56.575
	c3.124-3.124,3.124-8.19,0-11.314l-15.668-16.776L355.989,456.297z"/>
<polygon style="fill:#5B5D6E;" points="205.342,305.319 222.359,288.302 256.391,254.271 273.407,237.254 211.015,174.863 
	193.999,191.877 159.967,225.911 142.951,242.926 "/>
<path style="fill:#65687A;" d="M254.269,320.213L122.384,188.328c-1.167-1.167-1.167-3.076,0-4.243l29.79-29.788
	c1.167-1.167,3.076-1.167,4.242,0l131.886,131.885c1.167,1.167,1.167,3.075,0,4.242l-29.789,29.789
	C257.346,321.381,255.436,321.381,254.269,320.213z"/>
<circle style="fill:#FFD782;" cx="208.692" cy="241.115" r="24.002"/>
<g>
	<path style="fill:#2D2B29;" d="M216.674,169.206l-0.001-0.002c0,0-0.001-0.001-0.002-0.002L95.273,47.805
		C84.446,36.978,70.07,31.157,54.736,31.371C39.429,31.6,25.209,37.876,14.695,49.04c-20.577,21.851-19.4,57.547,2.625,79.571
		l182.361,182.361c0.001,0.002,0.003,0.003,0.004,0.005c0.002,0.002,0.004,0.003,0.006,0.005l150.802,150.802
		c0.001,0.002,0.003,0.003,0.004,0.005s0.003,0.003,0.005,0.005l11.801,11.801c4.694,4.693,10.86,7.041,17.027,7.041
		c6.167,0,12.333-2.347,17.027-7.041l45.325-45.325c4.548-4.548,7.053-10.595,7.053-17.028c0-6.433-2.504-12.479-7.053-17.027
		L216.674,169.206z M332.26,420.303c0.271-0.035,0.426-0.017,0.426-0.017v1.062L216.659,305.319l5.701-5.702l26.253,26.254
		c2.075,2.075,4.838,3.218,7.779,3.218c2.941,0,5.705-1.144,7.779-3.218l29.787-29.787c2.077-2.075,3.221-4.839,3.221-7.781
		c0-2.94-1.143-5.703-3.218-7.779l-26.253-26.253l5.701-5.702l117.857,117.858c-0.489,0.479-0.929,1.021-1.293,1.639
		c-0.066,0.112-6.903,11.189-17.869,12.144c-1.011,0.088-2.052,0.15-3.105,0.216c-9.034,0.557-25.85,1.593-28.218,22.913
		C339.362,416.079,334.588,420.006,332.26,420.303z M154.265,242.926l5.702-5.701l51.077,51.077l-5.702,5.701L154.265,242.926z
		 M262.092,237.254l-5.702,5.701l-51.078-51.077l5.702-5.701L262.092,237.254z M250.729,259.923
		c0.002,0.002,0.003,0.003,0.005,0.005s0.003,0.003,0.005,0.005l28.37,28.369l-22.717,22.717l-28.371-28.371
		c-0.001-0.001-0.002-0.003-0.003-0.004s-0.002-0.002-0.004-0.004l-96.436-96.436l22.717-22.717L250.729,259.923z M26.344,60.01
		c7.522-7.986,17.69-12.474,28.632-12.639c0.208-0.003,0.415-0.004,0.623-0.004c10.715,0,20.765,4.159,28.359,11.753
		l115.741,115.741l-5.701,5.701l-31.926-31.926c-4.288-4.285-11.266-4.286-15.557,0.001l-29.791,29.791
		c-4.287,4.288-4.287,11.267,0.001,15.558l31.925,31.925l-5.701,5.701L28.635,117.296C12.665,101.326,11.638,75.628,26.344,60.01z
		 M430.368,416.954l-45.325,45.325c-3.149,3.15-8.275,3.15-11.425,0l-6.148-6.148l28.374-28.375c3.125-3.125,3.125-8.191,0-11.315
		c-3.124-3.123-8.19-3.123-11.314,0l-28.375,28.375l-12.511-12.511c5.487-3.926,11.317-11.719,13.038-27.198
		c0.806-7.261,3.076-8.08,13.298-8.71c1.189-0.073,2.364-0.146,3.507-0.246c16.037-1.394,26.04-13.777,29.191-18.31l10.226,10.226
		l-5.687,5.687c-3.125,3.125-3.125,8.19,0,11.315c1.562,1.562,3.609,2.343,5.658,2.343s4.095-0.781,5.658-2.343l5.687-5.687
		l6.149,6.148c1.526,1.525,2.366,3.554,2.366,5.712C432.733,413.4,431.894,415.429,430.368,416.954z"/>
	<path style="fill:#2D2B29;" d="M477.424,290.016c-51.3-42.557-103.754-108.753-62.306-182.436c2.166-3.851,0.8-8.73-3.05-10.896
		c-3.852-2.165-8.729-0.8-10.896,3.051c-36.559,64.992-13.106,136.942,66.037,202.596c21.719,18.018,31.454,39.056,28.153,60.841
		c-3.357,22.153-19.763,40.135-33.494,45.807c-4.083,1.688-6.027,6.366-4.34,10.449c1.274,3.085,4.255,4.949,7.398,4.949
		c1.018,0,2.052-0.195,3.051-0.607c17.668-7.298,38.725-28.623,43.206-58.2C514.102,346.301,510.615,317.551,477.424,290.016z"/>
	<path style="fill:#2D2B29;" d="M432.215,207.919c1.251,0,2.521-0.295,3.705-0.915c3.914-2.051,5.426-6.887,3.375-10.8
		c-14.029-26.783-6.019-58.961,23.81-95.64c19.328-23.768,9.2-54.352,8.76-55.642c-1.428-4.182-5.973-6.414-10.157-4.986
		c-4.181,1.428-6.414,5.976-4.986,10.156c0.079,0.232,7.767,23.407-6.031,40.374c-42.653,52.448-37.448,90.487-25.571,113.16
		C426.551,206.359,429.334,207.919,432.215,207.919z"/>
</g>
</svg>
