<?xml version="1.0" encoding="iso-8859-1"?>
<!-- Generator: Adobe Illustrator 19.0.0, SVG Export Plug-In . SVG Version: 6.00 Build 0)  -->
<!-- License: CC0. Made by SVG Repo: https://www.svgrepo.com/svg/227371/soft-drink-soda -->
<svg version="1.1" id="Layer_1" xmlns="http://www.w3.org/2000/svg" xmlns:xlink="http://www.w3.org/1999/xlink" x="0px" y="0px"
	 viewBox="0 0 501.551 501.551" style="enable-background:new 0 0 501.551 501.551;" xml:space="preserve">
<path style="fill:#F2F2F2;" d="M336.98,476.473c2.09,13.584-7.314,25.078-20.898,25.078H186.514
	c-13.584,0-24.033-12.539-20.898-25.078l5.224-41.796c2.09-16.718,2.09-33.437-1.045-50.155
	c-6.269-38.661-9.404-78.367-9.404-117.029c0-37.616,3.135-75.233,9.404-112.849c1.045-5.225,2.09-11.494,3.135-16.718
	l39.706-104.49h76.278l39.706,104.49c1.045,5.225,2.09,11.494,3.135,16.718c6.269,37.616,9.404,75.233,9.404,112.849
	c0,38.661-3.135,78.367-9.404,117.029c-2.09,15.673-2.09,32.392,0,49.11L336.98,476.473z"/>
<path style="fill:#40596B;" d="M186.514,485.878c-2.09,0-3.135-1.045-4.18-2.09c-1.045-1.045-1.045-2.09-1.045-4.18l5.224-42.841
	c2.09-18.808,2.09-37.616-1.045-55.38c-13.584-79.412-12.539-159.869,3.135-240.327l35.527-92.996h53.29l34.482,92.996
	c15.673,79.412,16.718,160.914,3.135,240.327c-3.135,17.763-3.135,35.527-1.045,55.38l5.224,41.796c0,3.135,0,4.18-1.045,5.225
	c1.045,0,0,2.09-2.09,2.09H186.514z"/>
<path style="fill:#FF7058;" d="M341.159,266.449H161.437c0-37.616,3.135-75.233,9.404-112.849h160.914
	C338.024,191.216,341.159,228.833,341.159,266.449z"/>
<ellipse style="fill:#F2F2F2;" cx="251.298" cy="210.024" rx="48.065" ry="32.392"/>
<path style="fill:#FFD15C;" d="M296.229,7.314C295.184,3.135,291.004,0,286.824,0h-73.143c-4.18,0-8.359,3.135-9.404,7.314
	l-8.359,25.078h106.58L296.229,7.314z"/>
</svg>
