<svg xmlns="http://www.w3.org/2000/svg" viewBox="0 0 501.551 501.551" xml:space="preserve">
  <path style="fill:#ff7058" d="M310.177 0H188.969c-7.314 0-13.584 6.269-13.584 13.584v28.212c0 7.314 6.269 13.584 13.584 13.584h121.208c7.314 0 13.584-6.269 13.584-13.584V13.584c0-7.315-6.27-13.584-13.584-13.584"/>
  <path style="fill:#f2f2f2" d="M391.679 475.429c-5.224 15.673-19.853 26.122-36.571 26.122h-208.98c-16.718 0-31.347-10.449-36.571-26.122-18.808-55.38-55.38-181.812-29.257-241.371 18.808-42.841 68.963-60.604 114.939-67.918V54.335h111.804v111.804c45.976 6.269 96.131 24.033 114.939 67.918 25.077 59.559-12.539 185.992-30.303 241.372"/>
  <path style="fill:#cdd6e0" d="M194.194 54.335h111.804v15.673H194.194z"/>
  <path style="fill:#ffd15c" d="M340.479 303.02c-10.449-17.763-29.257-29.257-50.155-29.257h-81.502c-20.898 0-39.706 11.494-50.155 29.257s-10.449 40.751 0 58.514 29.257 29.257 50.155 29.257h81.502c20.898 0 39.706-11.494 50.155-29.257 10.449-18.807 10.449-40.75 0-58.514"/>
</svg>
