<?xml version="1.0" encoding="iso-8859-1"?>
<!-- Generator: Adobe Illustrator 19.0.0, SVG Export Plug-In . SVG Version: 6.00 Build 0)  -->
<!-- License: CC0. Made by SVG Repo: https://www.svgrepo.com/svg/210402/gambler-target -->
<svg version="1.1" id="Layer_1" xmlns="http://www.w3.org/2000/svg" xmlns:xlink="http://www.w3.org/1999/xlink" x="0px" y="0px"
	 viewBox="0 0 512 512" style="enable-background:new 0 0 512 512;" xml:space="preserve">
<circle style="fill:#FF6464;" cx="288" cy="288" r="216"/>
<circle style="fill:#FFFFFF;" cx="288" cy="288" r="168"/>
<circle style="fill:#FF6464;" cx="288" cy="288" r="121"/>
<circle style="fill:#FFFFFF;" cx="288" cy="288" r="72"/>
<g>
	<circle style="fill:#FF6464;" cx="288" cy="288" r="26"/>
	<polyline style="fill:#FF6464;" points="160,144 160,88 80,8 80,80 8,80 88,160 143.999,160 	"/>
</g>
<path style="fill:#FFD782;" d="M258.142,229.857c7.811,7.811,7.811,20.475,0,28.285c-7.811,7.81-20.474,7.811-28.284,0L48,48
	L258.142,229.857z"/>
<path style="fill:#C7CFE2;" d="M224,251c3.104-3.104,21.579-21.578,27-27c24.072,16.621,7.142,34.143,7.142,34.143
	S241.021,275.216,224,251z"/>
<path style="fill:#2D2B29;" d="M446.392,129.608C404.084,87.3,347.833,64,288,64c-42.907,0-84.143,12.01-120,34.828V88
	c0-2.122-0.843-4.156-2.343-5.657l-80-80C83.37,0.056,79.929-0.63,76.939,0.61C73.949,1.848,72,4.765,72,8v50.19L53.235,41.951
	c-3.172-2.746-7.925-2.573-10.892,0.392c-2.966,2.967-3.138,7.721-0.393,10.893L58.189,72H8c-3.236,0-6.153,1.949-7.391,4.938
	s-0.554,6.431,1.734,8.719l80,80c1.5,1.5,3.535,2.343,5.657,2.343h10.826C76.001,203.844,64,245.015,64,288
	c0,59.833,23.3,116.084,65.608,158.392S228.167,512,288,512s116.084-23.3,158.392-65.608S512,347.833,512,288
	S488.7,171.916,446.392,129.608z M252.662,235.694c4.502,4.692,4.443,12.172-0.176,16.791c-4.62,4.618-12.099,4.677-16.791,0.177
	l-109.092-126.06L252.662,235.694z M88,27.313l64,64v36.109L88,72.037V27.313z M27.313,88h44.723l55.386,64H91.313L27.313,88z
	 M288,496c-114.691,0-208-93.309-208-208c0-43.39,13.156-84.791,38.085-120h23.183l9.015,10.417
	C125.558,209.474,112,248.137,112,288c0,97.047,78.953,176,176,176s176-78.953,176-176c0-40.293-13.965-79.675-39.322-110.892
	c-2.785-3.429-7.823-3.951-11.253-1.166c-3.429,2.786-3.951,7.824-1.166,11.254C435.307,215.57,448,251.37,448,288
	c0,88.225-71.776,160-160,160s-160-71.775-160-160c0-35.235,11.65-69.438,32.954-97.253l21.499,24.843
	C167.769,236.953,160,261.967,160,288c0,70.579,57.42,128,128,128s128-57.421,128-128c0-27.942-8.845-54.493-25.578-76.781
	c-2.652-3.532-7.667-4.248-11.201-1.595c-3.533,2.652-4.247,7.667-1.594,11.2C392.264,240.32,400,263.549,400,288
	c0,61.757-50.243,112-112,112s-112-50.243-112-112c0-21.372,5.981-41.955,17.324-59.848l22.98,26.554
	c-1.068,0.835-1.941,1.946-2.486,3.292C209.958,267.535,208,277.63,208,288c0,44.112,35.888,80,80,80s80-35.888,80-80
	c0-15.902-4.657-31.268-13.466-44.435c-2.457-3.673-7.425-4.659-11.098-2.201c-3.672,2.457-4.657,7.426-2.2,11.098
	C348.278,262.988,352,275.276,352,288c0,35.29-28.71,64-64,64s-64-28.71-64-64c0-7.326,1.222-14.473,3.627-21.288
	c4.869,3.514,10.62,5.274,16.373,5.274c4.633,0,9.264-1.146,13.435-3.426c0.267,0.385,0.566,0.754,0.908,1.097l2.101,2.101
	C257.625,276.523,256,282.074,256,288c0,17.645,14.355,32,32,32s32-14.355,32-32c0-4.418-3.582-8-8-8s-8,3.582-8,8
	c0,8.822-7.178,16-16,16s-16-7.178-16-16c0-1.429,0.206-2.808,0.56-4.127l9.784,9.784c1.562,1.562,3.609,2.343,5.657,2.343
	s4.095-0.781,5.657-2.343c3.125-3.125,3.125-8.189,0-11.314l-9.784-9.783c1.319-0.354,2.698-0.56,4.127-0.56c4.418,0,8-3.582,8-8
	s-3.582-8-8-8c-5.926,0-11.477,1.625-16.242,4.444l-2.102-2.102c-0.342-0.343-0.711-0.641-1.096-0.907
	c5.109-9.352,4.495-21.018-1.849-29.809C273.527,225.222,280.675,224,288,224c12.729,0,25.022,3.725,35.55,10.772
	c1.367,0.914,2.913,1.353,4.443,1.353c2.58,0,5.113-1.246,6.655-3.551c2.458-3.672,1.474-8.641-2.198-11.099
	C319.279,212.66,303.909,208,288,208c-10.372,0-20.467,1.958-30.006,5.82c-1.345,0.544-2.456,1.417-3.29,2.482l-26.552-22.978
	C246.045,181.981,266.627,176,288,176c24.464,0,47.701,7.743,67.2,22.392c1.44,1.082,3.126,1.604,4.799,1.604
	c2.43,0,4.831-1.103,6.402-3.195c2.654-3.532,1.941-8.547-1.591-11.201C342.518,168.852,315.958,160,288,160
	c-26.034,0-51.047,7.77-72.41,22.453l-24.843-21.499C218.563,139.65,252.766,128,288,128c36.675,0,72.509,12.721,100.901,35.82
	c3.428,2.788,8.466,2.27,11.254-1.157c2.789-3.428,2.271-8.466-1.157-11.255C367.762,125.995,328.342,112,288,112
	c-39.863,0-78.527,13.558-109.583,38.284L168,141.27v-23.179C203.212,93.173,244.688,80,288,80c114.691,0,208,93.309,208,208
	S402.691,496,288,496z"/>
</svg>
