<svg width="106" height="68" viewBox="0 0 106 68" fill="none" xmlns="http://www.w3.org/2000/svg">
    <path d="M12.3662 16.4141C17.1143 16.4141 16.7631 21.9434 16.7598 21.9941V26.0098C18.9916 24.1633 21.7421 23.2314 24.4922 23.2314C27.6073 23.2315 30.7109 24.4101 33.0781 26.7666L40.1035 33.7598L47.1348 40.7588C47.3114 40.9346 47.4942 41.0986 47.6826 41.251C47.4942 41.0986 47.3114 40.9405 47.1348 40.7646C50.1558 43.766 55.0669 43.766 58.0879 40.7646L58.1523 40.7002L58.1709 40.6826C61.1092 37.6754 61.0793 32.845 58.0879 29.8672C55.0728 26.8718 50.4384 26.7545 47.1406 29.8672C43.8534 32.9644 39.744 31.0997 39.7031 31.0811V16.4316C44.4514 16.4318 44.099 21.9618 44.0957 22.0117V26.7197C48.8421 22.077 56.4862 22.1004 61.1914 26.7842C63.3995 28.9882 64.5656 31.8309 64.7129 34.7148L69.8359 30.0312V24.2686C71.9383 24.2686 73.0401 25.3539 73.6172 26.5674C75.8844 24.4219 78.7347 23.2432 81.9736 23.2432C85.2124 23.2432 88.263 24.5039 90.5537 26.7842L90.5479 26.7666C92.8384 29.0469 94.1045 32.0778 94.1045 35.3076V47.4414C90.2826 47.4414 89.7639 43.8659 89.7109 42.4414V35.3076C89.7109 33.2501 88.9047 31.3151 87.4443 29.8613C85.984 28.4076 84.0347 27.6046 81.9678 27.6045C79.9009 27.6045 77.9516 28.4018 76.4912 29.8613L76.4258 29.9258L74.2236 31.9365V41.8672C74.2266 41.9129 74.5804 47.4473 69.8301 47.4473V35.958L61.1562 43.8896C58.7889 46.2227 55.6971 47.3887 52.6055 47.3887C49.4962 47.3887 46.3927 46.2109 44.0254 43.8545L37 36.8604L29.9688 29.8672C27.0008 26.9127 22.1949 26.8659 19.168 29.7266L18.9385 29.9492C17.4898 31.4323 16.7598 33.3614 16.7598 35.29V35.3135C16.7599 37.2889 17.5081 39.264 19.0215 40.7646C22.0366 43.7601 26.671 43.8774 29.9688 40.7646C33.2724 37.6521 37.4062 39.5459 37.4062 39.5459L33.084 43.8486C28.3376 48.5616 20.6409 48.5555 15.9121 43.8486C13.5449 41.4922 12.3663 38.3968 12.3662 35.3018V16.4141ZM70.2012 17.1699C71.1787 16.1968 72.7695 16.1968 73.7471 17.1699C74.7244 18.143 74.7245 19.7203 73.7471 20.6934L71.9736 22.458L70.2012 20.6934V20.6992C69.2237 19.7203 69.2238 18.143 70.2012 17.1699Z" fill="#F03A00"/>
    <path style="mix-blend-mode:multiply" d="M44.096 26.7252V22.0179C44.096 22.0179 44.4729 16.4372 39.7029 16.4372V31.0866H39.7971L44.0194 26.7897C44.0194 26.7897 44.0724 26.7486 44.0901 26.7252H44.096Z" fill="url(#paint0_linear_5232_3560)"/>
    <path style="mix-blend-mode:multiply" d="M69.8306 35.9697V47.4593C74.6006 47.4593 74.2237 41.8786 74.2237 41.8786V31.9483L73.5111 32.599L69.8306 35.9697Z" fill="url(#paint1_linear_5232_3560)"/>
    <path style="mix-blend-mode:multiply" d="M16.0119 26.69C16.2534 26.4555 16.5007 26.2445 16.7598 26.0335V22.0121C16.7598 22.0121 17.1367 16.4314 12.3667 16.4314V35.319H12.3785C12.3785 32.2941 13.5033 29.2752 15.7646 26.9421L16.0178 26.6841L16.0119 26.69Z" fill="url(#paint2_linear_5232_3560)"/>
    <path style="mix-blend-mode:multiply" d="M61.1914 26.7838C56.4862 22.1 48.8424 22.0766 44.096 26.7193C44.0724 26.7428 44.0489 26.7604 44.0253 26.7838L39.803 30.9869L39.7087 31.0866C39.7087 31.0866 43.8427 32.98 47.1464 29.8673C50.4442 26.7545 55.0788 26.8717 58.0939 29.8673C61.0854 32.8452 61.1149 37.6755 58.1763 40.6828L64.7248 34.7035C64.5775 31.8193 63.4115 28.9762 61.2032 26.7721L61.1914 26.7838Z" fill="url(#paint3_linear_5232_3560)"/>
    <path style="mix-blend-mode:multiply" d="M73.6112 26.5669C73.0341 25.3535 71.9329 24.269 69.8306 24.269V30.0314C69.8306 30.0314 73.5464 26.6314 73.6112 26.5669Z" fill="url(#paint4_linear_5232_3560)"/>
    <defs>
        <linearGradient id="paint0_linear_5232_3560" x1="41.8994" y1="22.1586" x2="41.8994" y2="30.43" gradientUnits="userSpaceOnUse">
            <stop stop-color="white"/>
            <stop offset="1" stop-color="#999999"/>
        </linearGradient>
        <linearGradient id="paint1_linear_5232_3560" x1="72.4865" y1="26.4203" x2="72.113" y2="37.0484" gradientUnits="userSpaceOnUse">
            <stop stop-color="white"/>
            <stop offset="0.42" stop-color="#999999"/>
            <stop offset="1" stop-color="white"/>
        </linearGradient>
        <linearGradient id="paint2_linear_5232_3560" x1="14.4219" y1="22.7917" x2="13.7625" y2="30.3602" gradientUnits="userSpaceOnUse">
            <stop stop-color="white"/>
            <stop offset="1" stop-color="#999999"/>
        </linearGradient>
        <linearGradient id="paint3_linear_5232_3560" x1="52.0224" y1="31.6024" x2="55.282" y2="40.5634" gradientUnits="userSpaceOnUse">
            <stop stop-color="white"/>
            <stop offset="1" stop-color="#999999"/>
        </linearGradient>
        <linearGradient id="paint4_linear_5232_3560" x1="71.7091" y1="27.6514" x2="71.8025" y2="32.218" gradientUnits="userSpaceOnUse">
            <stop stop-color="white"/>
            <stop offset="0.42" stop-color="#999999"/>
            <stop offset="1" stop-color="white"/>
        </linearGradient>
    </defs>
</svg>
